<?xml version="1.0" encoding="UTF-8"?>
<svg id="Calque_2" data-name="Calque 2" xmlns="http://www.w3.org/2000/svg" xmlns:xlink="http://www.w3.org/1999/xlink" viewBox="0 0 48.15 55.91">
  <defs>
    <style>
      .cls-1 {
        clip-path: url(#clippath);
      }

      .cls-2 {
        fill: none;
      }

      .cls-2, .cls-3 {
        stroke-width: 0px;
      }

      .cls-3 {
        fill: #000;
      }

      .cls-4 {
        fill: #fbb91b;
        stroke: #020202;
        stroke-miterlimit: 10;
      }
    </style>
    <clipPath id="clippath">
      <rect class="cls-2" width="47.65" height="55.91"/>
    </clipPath>
  </defs>
  <g id="Calque_1-2" data-name="Calque 1">
    <g>
      <g class="cls-1">
        <g id="Groupe_de_masques_14" data-name="Groupe de masques 14">
          <path id="brain-arrow-curved-right-thin" class="cls-3" d="M14.91,7.05c-2.26.07-4.18,1.7-4.63,3.94-2.42.25-4.32,2.48-4.32,5.2,0,.53.07,1.05.21,1.56-2.32.86-3.85,3.12-3.79,5.62,0,.97.22,1.93.65,2.8-1.92,1.23-3.07,3.39-3.03,5.69-.05,2.57,1.39,4.93,3.68,6.03-.07.38-.1.77-.1,1.15,0,3.25,2.4,5.88,5.37,5.88.27,0,.54-.02.81-.07.54,2.29,2.54,3.92,4.86,3.98,1.92-.03,3.66-1.17,4.47-2.94.82,1.76,2.55,2.9,4.47,2.94.51,0,1.01-.08,1.49-.25-.26-.37-.5-.75-.72-1.14-.25.06-.51.08-.77.08-2.06,0-3.74-1.75-3.87-3.96,0-.02,0-.05,0-.07V12.27c0-2.16,1.6-3.92,3.58-3.92,1.84.06,3.36,1.5,3.54,3.36.03.31.29.55.6.56h.04c1.98,0,3.58,1.76,3.58,3.92,0,.6-.13,1.19-.37,1.74-.08.19-.08.4,0,.59.08.18.24.3.43.34,2.09.45,3.57,2.35,3.5,4.51,0,.96-.28,1.89-.8,2.69-.11.17-.14.37-.09.56.05.19.17.34.34.42.67.31,1.27.78,1.74,1.36v-.48c0-.39.05-.78.16-1.15-.25-.22-.52-.42-.81-.6.43-.87.65-1.83.65-2.8.05-2.5-1.47-4.77-3.8-5.63.14-.51.22-1.03.22-1.56,0-2.72-1.89-4.96-4.32-5.2-.44-2.25-2.36-3.89-4.62-3.95-1.78.03-3.4,1.07-4.18,2.69-.78-1.62-2.39-2.67-4.18-2.69ZM18.49,12.27v31.23s0,.05,0,.07c-.13,2.21-1.81,3.96-3.87,3.96-1.97-.06-3.59-1.57-3.83-3.55-.03-.18-.12-.34-.27-.44-.14-.1-.31-.13-.48-.08-.36.11-.73.16-1.1.16-2.3,0-4.18-2.05-4.18-4.57,0-.46.06-.92.19-1.36.05-.17.03-.34-.04-.5-.07-.15-.2-.26-.35-.32-2.73-1.09-4.08-4.22-3-6.99.48-1.23,1.39-2.24,2.56-2.84.17-.08.3-.24.34-.42.05-.19.01-.4-.09-.56-.52-.79-.8-1.72-.8-2.68-.06-2.16,1.41-4.06,3.5-4.51.19-.04.35-.16.43-.34.08-.19.09-.4,0-.59-.25-.55-.37-1.14-.37-1.74,0-2.16,1.6-3.92,3.58-3.92h.04c.31,0,.57-.25.6-.56.19-1.86,1.7-3.29,3.55-3.36,1.97,0,3.58,1.75,3.58,3.92ZM39.37,39.7c.02-.69-.51-1.28-1.19-1.31h-3.58c-3.3,0-5.97,2.92-5.97,6.53v2.21c-1.55-1.65-2.4-3.85-2.39-6.13,0-4.33,3.21-7.84,7.16-7.84h4.77c.68-.03,1.22-.61,1.19-1.31v-3.92l7.16,7.84-7.16,7.84v-3.92Z"/>
        </g>
      </g>
      <path class="cls-4" d="M38.11,28.64v3.92h-4.77c-4.62,0-8.35,4.09-8.35,9.14-.03,2.92,1.19,5.72,3.35,7.66.14.12.32.18.5.18.53-.02.94-.47.92-1v-2.91c0-2.88,2.14-5.23,4.77-5.23h3.58v3.92c0,.52.28.99.74,1.21.45.2.97.09,1.3-.29l7.16-7.84c.46-.53.46-1.32,0-1.84l-7.16-7.84c-.33-.37-.85-.48-1.3-.29-.46.22-.75.69-.74,1.21Z"/>
    </g>
  </g>
</svg>