<?xml version="1.0" encoding="UTF-8"?>
<svg id="Calque_1" data-name="Calque 1" xmlns="http://www.w3.org/2000/svg" viewBox="0 0 82.75 82.75">
  <defs>
    <style>
      .cls-1 {
        fill: #000;
      }

      .cls-1, .cls-2 {
        stroke-width: 0px;
      }

      .cls-2 {
        fill: #00a09a;
      }
    </style>
  </defs>
  <path class="cls-1" d="M50.43,0c-2.15,0-3.88,1.73-3.88,3.88v5.17c0,2.15,1.73,3.88,3.88,3.88h2.59c2.15,0,3.88,1.73,3.88,3.88s-1.73,3.88-3.88,3.88h-2.59c-2.15,0-3.88,1.73-3.88,3.88v3.88c0,2.15,1.73,3.88,3.88,3.88h6.46v2.59c0,3.57,2.89,6.46,6.46,6.46s6.46-2.89,6.46-6.46v-2.59h9.05c2.15,0,3.88-1.73,3.88-3.88V9.05c0-4.99-4.06-9.05-9.05-9.05h-23.27ZM9.05,10.34C4.06,10.34,0,14.4,0,19.39v54.3c0,4.99,4.06,9.05,9.05,9.05h54.3c4.99,0,9.05-4.06,9.05-9.05v-24.57c0-2.15-1.73-3.88-3.88-3.88h-9.05c-2.15,0-3.88,1.73-3.88,3.88v2.59c0,2.15-1.73,3.88-3.88,3.88s-3.88-1.73-3.88-3.88v-2.59c0-2.15-1.73-3.88-3.88-3.88h-6.46V14.22c0-2.15-1.73-3.88-3.88-3.88H9.05ZM34.91,14.22v31.03h-6.46c-.71,0-1.29-.58-1.29-1.29v-2.59c0-3.57-2.89-6.46-6.46-6.46s-6.46,2.89-6.46,6.46v2.59c0,.71-.58,1.29-1.29,1.29H2.59v-25.86c0-3.57,2.89-6.46,6.46-6.46h24.57c.71,0,1.29.58,1.29,1.29ZM12.93,47.84c2.15,0,3.88-1.73,3.88-3.88v-2.59c0-2.15,1.73-3.88,3.88-3.88s3.88,1.73,3.88,3.88v2.59c0,2.15,1.73,3.88,3.88,3.88h6.46v6.46c0,.71-.58,1.29-1.29,1.29h-2.59c-3.57,0-6.46,2.89-6.46,6.46s2.89,6.46,6.46,6.46h2.59c.71,0,1.29.58,1.29,1.29v10.34H9.05c-3.57,0-6.46-2.89-6.46-6.46v-25.86h10.34ZM37.5,69.82c0-2.15-1.73-3.88-3.88-3.88h-2.59c-2.15,0-3.88-1.73-3.88-3.88s1.73-3.88,3.88-3.88h2.59c2.15,0,3.88-1.73,3.88-3.88v-6.46h6.46c.71,0,1.29.58,1.29,1.29v2.59c0,3.57,2.89,6.46,6.46,6.46s6.46-2.89,6.46-6.46v-2.59c0-.71.58-1.29,1.29-1.29h9.05c.71,0,1.29.58,1.29,1.29v24.57c0,3.57-2.89,6.46-6.46,6.46h-25.86v-10.34Z"/>
  <path class="cls-2" d="M49.13,3.88c0-.71.58-1.29,1.29-1.29h23.27c3.57,0,6.46,2.89,6.46,6.46v19.39c0,.71-.58,1.29-1.29,1.29h-10.34c-.71,0-1.29.58-1.29,1.29v3.88c0,2.15-1.73,3.88-3.88,3.88s-3.88-1.73-3.88-3.88v-3.88c0-.71-.58-1.29-1.29-1.29h-7.76c-.71,0-1.29-.58-1.29-1.29v-3.88c0-.71.58-1.29,1.29-1.29h2.59c3.57,0,6.46-2.89,6.46-6.46s-2.89-6.46-6.46-6.46h-2.59c-.71,0-1.29-.58-1.29-1.29V3.88Z"/>
</svg>