<?xml version="1.0" encoding="UTF-8"?>
<svg id="Calque_1" data-name="Calque 1" xmlns="http://www.w3.org/2000/svg" viewBox="0 0 72 72.01">
  <defs>
    <style>
      .cls-1 {
        fill: #000;
      }

      .cls-1, .cls-2 {
        stroke-width: 0px;
      }

      .cls-2 {
        fill: #00a09a;
      }
    </style>
  </defs>
  <path class="cls-1" d="M.99,6.61L6.61.99c1.2-1.2,3.09-1.32,4.44-.3l14.62,11.25c.83.63,1.32,1.63,1.32,2.67v10.79l13.4,13.42c4.26-3.47,10.55-3.22,14.53.76l15.75,15.75c1.76,1.76,1.76,4.61,0,6.37l-9,9c-1.76,1.76-4.61,1.76-6.37,0l-15.75-15.75c-3.98-3.98-4.22-10.27-.76-14.53l-13.39-13.42h-10.79c-1.05,0-2.04-.49-2.67-1.32L.7,11.06c-1.04-1.34-.91-3.23.28-4.44ZM3.03,54.35l20.9-20.9,1.59,1.59L4.63,55.94c-1.52,1.52-2.38,3.57-2.38,5.72,0,4.46,3.63,8.09,8.09,8.09,2.15,0,4.2-.86,5.72-2.38l16.31-16.3c.21.8.48,1.59.82,2.36l-15.54,15.54c-1.94,1.94-4.57,3.02-7.31,3.02C4.63,72,0,67.38,0,61.67c0-2.74,1.08-5.37,3.02-7.31ZM69.75,22.5c0-2.42-.42-4.72-1.2-6.88l-10.05,10.05c-.84.84-1.98,1.32-3.18,1.32h-5.82c-2.49,0-4.5-2.01-4.5-4.5v-5.82c0-1.2.48-2.33,1.32-3.18l10.05-10.05c-2.15-.77-4.46-1.2-6.88-1.2-7.13,0-13.4,3.68-17.02,9.25l-1.79-1.38C34.72,4.03,41.64,0,49.5,0c2.83,0,5.54.52,8.03,1.48,1.41.53,1.66,2.32.6,3.39l-10.22,10.22c-.42.42-.66,1-.66,1.59v5.82c0,1.24,1.01,2.25,2.25,2.25h5.82c.59,0,1.17-.24,1.59-.66l10.22-10.22c1.07-1.07,2.85-.8,3.39.6.96,2.49,1.48,5.2,1.48,8.03,0,7.57-3.73,14.24-9.45,18.32l-1.62-1.62c5.33-3.64,8.82-9.77,8.82-16.71h0ZM11.25,58.5c1.24,0,2.25,1.01,2.25,2.25s-1.01,2.25-2.25,2.25-2.25-1.01-2.25-2.25,1.01-2.25,2.25-2.25Z"/>
  <path class="cls-2" d="M53.34,41.16c-3.36-3.36-8.82-3.36-12.18,0s-3.36,8.82,0,12.18l15.75,15.75c.87.87,2.31.87,3.18,0l9-9c.87-.87.87-2.31,0-3.18l-15.75-15.75Z"/>
  <path class="cls-2" d="M23.63,24.75h1.12v-10.12c0-.35-.17-.67-.44-.89L9.69,2.49c-.45-.34-1.08-.31-1.48.1l-5.62,5.62c-.39.39-.44,1.03-.1,1.48l11.25,14.62c.21.28.55.44.89.44h9,0Z"/>
</svg>