<?xml version="1.0" encoding="UTF-8"?>
<svg xmlns="http://www.w3.org/2000/svg" xmlns:xlink="http://www.w3.org/1999/xlink" viewBox="0 0 76.61 71.06">
  <defs>
    <style>
      .cls-1 {
        clip-path: url(#clippath);
      }

      .cls-2, .cls-3, .cls-4 {
        stroke-width: 0px;
      }

      .cls-2, .cls-5 {
        fill: none;
      }

      .cls-6 {
        fill: #be1822;
        stroke: #be1822;
      }

      .cls-6, .cls-5 {
        stroke-miterlimit: 10;
      }

      .cls-3 {
        fill: #000;
      }

      .cls-5 {
        stroke: #1d1d1b;
        stroke-width: .5px;
      }

      .cls-4 {
        fill: #fdb914;
      }
    </style>
    <clipPath id="clippath">
      <rect class="cls-2" x="33.05" y="1.82" width="9.81" height="11.28" transform="translate(5.84 29.02) rotate(-45)"/>
    </clipPath>
  </defs>
  <g id="Calque_1" data-name="Calque 1">
    <path class="cls-3" d="M22.85,52.78c2.52,0,4.57-2.05,4.57-4.57s-2.05-4.57-4.57-4.57-4.57,2.05-4.57,4.57,2.05,4.57,4.57,4.57ZM19.99,55.06c-2.84,0-5.14,2.3-5.14,5.14,0,.95.76,1.71,1.71,1.71h12.57c.95,0,1.71-.76,1.71-1.71,0-2.84-2.3-5.14-5.14-5.14h-5.71ZM10.85,53.92h4.57c.31,0,.57-.26.57-.57s-.26-.57-.57-.57h-4.57c-2.21,0-4,1.79-4,4,0,1.26,1.02,2.28,2.28,2.28h2.28c.31,0,.57-.26.57-.57s-.26-.57-.57-.57h-2.28c-.63,0-1.14-.51-1.14-1.14,0-1.58,1.28-2.86,2.86-2.86ZM10.28,47.07c0-1.26,1.02-2.28,2.28-2.28s2.28,1.02,2.28,2.28-1.02,2.28-2.28,2.28-2.28-1.02-2.28-2.28ZM15.99,47.07c0-1.89-1.53-3.43-3.43-3.43s-3.43,1.53-3.43,3.43,1.53,3.43,3.43,3.43,3.43-1.53,3.43-3.43ZM34.84,53.92c1.58,0,2.86,1.28,2.86,2.86,0,.63-.51,1.14-1.14,1.14h-2.28c-.31,0-.57.26-.57.57s.26.57.57.57h2.28c1.26,0,2.28-1.02,2.28-2.28,0-2.21-1.79-4-4-4h-4.57c-.31,0-.57.26-.57.57s.26.57.57.57h4.57,0ZM35.41,47.07c0,1.26-1.02,2.28-2.28,2.28s-2.28-1.02-2.28-2.28,1.02-2.28,2.28-2.28,2.28,1.02,2.28,2.28ZM29.7,47.07c0,1.89,1.53,3.43,3.43,3.43s3.43-1.53,3.43-3.43-1.53-3.43-3.43-3.43-3.43,1.53-3.43,3.43h0Z"/>
    <path class="cls-4" d="M.17,34.67c-.22.22-.22.59,0,.81l5.71,5.71c.22.22.59.22.81,0s.22-.59,0-.81l-5.71-5.71c-.22-.22-.58-.22-.81,0h0Z"/>
    <path class="cls-4" d="M45.52,34.67c-.22-.22-.59-.22-.81,0l-5.71,5.71c-.22.22-.22.59,0,.81s.59.22.81,0l5.71-5.71c.22-.22.22-.59,0-.81Z"/>
    <path class="cls-4" d="M.98,70.89l5.71-5.71c.22-.22.22-.59,0-.81s-.59-.22-.81,0L.17,70.09c-.22.22-.22.59,0,.81s.59.22.81,0h0Z"/>
    <path class="cls-4" d="M45.53,70.89c.22-.22.22-.59,0-.81l-5.71-5.71c-.22-.22-.59-.22-.81,0s-.22.59,0,.81l5.71,5.71c.22.22.59.22.81,0Z"/>
    <circle class="cls-4" cx="22.85" cy="48.21" r="3.43"/>
    <path class="cls-4" d="M15.99,60.21c0-2.21,1.79-4,4-4h5.71c2.21,0,4,1.79,4,4,0,.31-.26.57-.57.57h-12.57c-.31,0-.57-.26-.57-.57h0Z"/>
  </g>
  <g id="Calque_2" data-name="Calque 2">
    <g>
      <circle class="cls-6" cx="73.4" cy="35.08" r="2.71"/>
      <g class="cls-1">
        <g id="Groupe_de_masques_34" data-name="Groupe de masques 34">
          <path id="xmark-light" class="cls-3" d="M45.37,8.13c0,.27-.22.49-.49.49h-5.75v5.75c0,.27-.22.49-.49.49s-.49-.22-.49-.49v-5.75h-5.75c-.27,0-.49-.22-.49-.49s.22-.49.49-.49h5.75V1.89c0-.27.22-.49.49-.49s.49.22.49.49v5.75h5.75c.27,0,.49.21.49.48h0Z"/>
        </g>
      </g>
      <circle class="cls-5" cx="56.22" cy="52.78" r="2.71"/>
    </g>
  </g>
</svg>