<?xml version="1.0" encoding="UTF-8"?>
<svg id="Calque_1" data-name="Calque 1" xmlns="http://www.w3.org/2000/svg" viewBox="0 0 99.12 79.3">
  <defs>
    <style>
      .cls-1 {
        fill: #000;
      }

      .cls-1, .cls-2 {
        stroke-width: 0px;
      }

      .cls-2 {
        fill: #fdb914;
      }
    </style>
  </defs>
  <path class="cls-1" d="M49.56,39.65c5.47,0,9.91-4.44,9.91-9.91s-4.44-9.91-9.91-9.91-9.91,4.44-9.91,9.91,4.44,9.91,9.91,9.91ZM43.37,44.61c-6.16,0-11.15,4.99-11.15,11.15,0,2.06,1.66,3.72,3.72,3.72h27.26c2.06,0,3.72-1.66,3.72-3.72,0-6.16-4.99-11.15-11.15-11.15h-12.39ZM23.54,42.13h9.91c.68,0,1.24-.56,1.24-1.24s-.56-1.24-1.24-1.24h-9.91c-4.79,0-8.67,3.89-8.67,8.67,0,2.74,2.21,4.96,4.96,4.96h4.96c.68,0,1.24-.56,1.24-1.24s-.56-1.24-1.24-1.24h-4.96c-1.36,0-2.48-1.12-2.48-2.48,0-3.42,2.77-6.19,6.19-6.19ZM22.3,27.26c0-2.74,2.22-4.96,4.96-4.96s4.96,2.22,4.96,4.96-2.22,4.96-4.96,4.96-4.96-2.22-4.96-4.96ZM34.69,27.26c0-4.11-3.33-7.43-7.43-7.43s-7.43,3.33-7.43,7.43,3.33,7.43,7.43,7.43,7.43-3.33,7.43-7.43ZM75.58,42.13c3.42,0,6.19,2.77,6.19,6.19,0,1.36-1.12,2.48-2.48,2.48h-4.96c-.68,0-1.24.56-1.24,1.24s.56,1.24,1.24,1.24h4.96c2.74,0,4.96-2.21,4.96-4.96,0-4.79-3.89-8.67-8.67-8.67h-9.91c-.68,0-1.24.56-1.24,1.24s.56,1.24,1.24,1.24h9.91,0ZM76.82,27.26c0,2.74-2.22,4.96-4.96,4.96s-4.96-2.22-4.96-4.96,2.22-4.96,4.96-4.96,4.96,2.22,4.96,4.96ZM64.43,27.26c0,4.11,3.33,7.43,7.43,7.43s7.43-3.33,7.43-7.43-3.33-7.43-7.43-7.43-7.43,3.33-7.43,7.43h0Z"/>
  <path class="cls-2" d="M.36.36C-.12.84-.12,1.63.36,2.11l12.39,12.39c.48.48,1.27.48,1.75,0s.48-1.27,0-1.75L2.11.36C1.63-.12.86-.12.36.36h0Z"/>
  <path class="cls-2" d="M98.75.36c-.48-.48-1.27-.48-1.75,0l-12.39,12.39c-.48.48-.48,1.27,0,1.75s1.27.48,1.75,0l12.39-12.39c.48-.48.48-1.27,0-1.75Z"/>
  <path class="cls-2" d="M2.12,78.94l12.39-12.39c.48-.48.48-1.27,0-1.75s-1.27-.48-1.75,0L.37,77.19c-.48.48-.48,1.27,0,1.75s1.27.48,1.75,0h0Z"/>
  <path class="cls-2" d="M98.76,78.94c.48-.48.48-1.27,0-1.75l-12.39-12.39c-.48-.48-1.27-.48-1.75,0s-.48,1.27,0,1.75l12.39,12.39c.48.48,1.27.48,1.75,0Z"/>
  <circle class="cls-2" cx="49.56" cy="29.74" r="7.43"/>
  <path class="cls-2" d="M34.69,55.76c0-4.79,3.89-8.67,8.67-8.67h12.39c4.79,0,8.67,3.89,8.67,8.67,0,.68-.56,1.24-1.24,1.24h-27.26c-.68,0-1.24-.56-1.24-1.24h0Z"/>
</svg>